<svg height="512" viewBox="0 0 64 64" width="512" xmlns="http://www.w3.org/2000/svg"><g id="Ambulance-Van-Hospital-Medical-Health_care" data-name="Ambulance-Van-Hospital-Medical-Health care"><path d="m59.7 41.66-1.7-.41v-2.25a17.024 17.024 0 0 0 -17-17h-34a5 5 0 0 0 -5 5v24a5 5 0 0 0 5 5h3.08a6.991 6.991 0 0 0 13.84 0h15.16a6.991 6.991 0 0 0 13.84 0h6.08a3.009 3.009 0 0 0 3-3v-8.43a2.985 2.985 0 0 0 -2.3-2.91zm-53.73 12.15a3.008 3.008 0 0 1 -1.97-2.81v-5h.99a.99.99 0 0 1 .71.29 1.007 1.007 0 0 1 .29.71zm11.03 6.19a5 5 0 1 1 5-5 5 5 0 0 1 -5 5zm29 0a5 5 0 1 1 5-5 5 5 0 0 1 -5 5zm14-10h-1a1 1 0 0 1 0-2h1zm0-4h-1a3 3 0 0 0 0 6h1v1a1 1 0 0 1 -1 1h-6.08a6.991 6.991 0 0 0 -13.84 0h-15.16a6.991 6.991 0 0 0 -13.84 0h-2.11l.02-6.99a2.945 2.945 0 0 0 -.87-2.13 2.979 2.979 0 0 0 -2.13-.88h-.99v-17a3.009 3.009 0 0 1 3-3h34a15.018 15.018 0 0 1 15 15v3.04a1 1 0 0 0 .77.97l2.46.59a1 1 0 0 1 .77.97z"/><path d="m41 26h-4a1 1 0 0 0 -1 1v14a1 1 0 0 0 1 1h16a1 1 0 0 0 1-1v-2a13.015 13.015 0 0 0 -13-13zm11 14h-14v-12h3a11.013 11.013 0 0 1 11 11z"/><path d="m38 46h-11a1 1 0 0 0 0 2h11a1 1 0 0 0 0-2z"/><path d="m17 52a3 3 0 1 0 3 3 3 3 0 0 0 -3-3zm0 4a1 1 0 1 1 1-1 1 1 0 0 1 -1 1z"/><path d="m46 52a3 3 0 1 0 3 3 3 3 0 0 0 -3-3zm0 4a1 1 0 1 1 1-1 1 1 0 0 1 -1 1z"/><path d="m27 36v-4a1 1 0 0 0 -1-1h-4v-4a1 1 0 0 0 -1-1h-4a1 1 0 0 0 -1 1v4h-4a1 1 0 0 0 -1 1v4a1 1 0 0 0 1 1h4v4a1 1 0 0 0 1 1h4a1 1 0 0 0 1-1v-4h4a1 1 0 0 0 1-1zm-2-1h-4a1 1 0 0 0 -1 1v4h-2v-4a1 1 0 0 0 -1-1h-4v-2h4a1 1 0 0 0 1-1v-4h2v4a1 1 0 0 0 1 1h4z"/><path d="m42 18v-3a5 5 0 0 0 -10 0v3a1 1 0 0 0 0 2h10a1 1 0 0 0 0-2zm-2 0h-6v-3a3 3 0 0 1 6 0z"/><path d="m29.007 13.939a1 1 0 0 0 1.221-.715 6.914 6.914 0 0 1 1.318-2.613 1 1 0 0 0 -1.557-1.255 8.915 8.915 0 0 0 -1.7 3.363 1 1 0 0 0 .718 1.22z"/><path d="m43.757 13.166a1 1 0 0 0 .965.74 1.018 1.018 0 0 0 .261-.035 1 1 0 0 0 .705-1.226 8.912 8.912 0 0 0 -1.743-3.37 1 1 0 0 0 -1.545 1.272 6.939 6.939 0 0 1 1.357 2.619z"/><path d="m24.959 14.981a.8.8 0 0 0 .084 0 1 1 0 0 0 1-.917 10.866 10.866 0 0 1 1.435-4.573 11.151 11.151 0 0 1 1.222-1.714 1 1 0 0 0 -1.5-1.313 12.987 12.987 0 0 0 -1.451 2.029 12.841 12.841 0 0 0 -1.7 5.408 1 1 0 0 0 .91 1.08z"/><path d="m46.513 9.472a10.868 10.868 0 0 1 1.448 4.6 1 1 0 0 0 1 .916h.085a1 1 0 0 0 .913-1.08 12.874 12.874 0 0 0 -1.714-5.438 13.128 13.128 0 0 0 -1.42-1.984 1 1 0 1 0 -1.51 1.312 11.13 11.13 0 0 1 1.198 1.674z"/></g></svg>