<svg height="512" viewBox="0 0 64 64" width="512" xmlns="http://www.w3.org/2000/svg"><g id="Bag-Healthcare-Medical-Doctor-Health"><path d="m57 14h-6v-1a3.009 3.009 0 0 0 -3-3v-3a3.009 3.009 0 0 0 -3-3h-1.18a3.01 3.01 0 0 0 -2.82-2h-18a3.01 3.01 0 0 0 -2.82 2h-1.18a3.009 3.009 0 0 0 -3 3v3a3.009 3.009 0 0 0 -3 3v1h-6a5 5 0 0 0 -5 5v38a5 5 0 0 0 5 5h50a5 5 0 0 0 5-5v-38a5 5 0 0 0 -5-5zm-9-2a1 1 0 0 1 1 1v1h-4v-1a1 1 0 0 1 1-1zm-25-8h18a1 1 0 0 1 0 2h-18a1 1 0 0 1 0-2zm-5 3a1 1 0 0 1 1-1h1.18a3.01 3.01 0 0 0 2.82 2h18a3.01 3.01 0 0 0 2.82-2h1.18a1 1 0 0 1 1 1v3a3.009 3.009 0 0 0 -3 3v1h-22v-1a3.009 3.009 0 0 0 -3-3zm-3 6a1 1 0 0 1 1-1h2a1 1 0 0 1 1 1v1h-4zm45 44a3.009 3.009 0 0 1 -3 3h-50a3.009 3.009 0 0 1 -3-3v-16.36a8.982 8.982 0 0 0 6 3.3v5.06a3.009 3.009 0 0 0 3 3h2a3.009 3.009 0 0 0 3-3v-5h28v5a3.009 3.009 0 0 0 3 3h2a3.009 3.009 0 0 0 3-3v-5.06a8.982 8.982 0 0 0 6-3.3zm-48-8v-5h4v5a1 1 0 0 1 -1 1h-2a1 1 0 0 1 -1-1zm36 0v-5h4v5a1 1 0 0 1 -1 1h-2a1 1 0 0 1 -1-1zm12-14a7.008 7.008 0 0 1 -7 7h-42a7.008 7.008 0 0 1 -7-7v-16a3.009 3.009 0 0 1 3-3h50a3.009 3.009 0 0 1 3 3z"/><path d="m40 24h-4v-4a1 1 0 0 0 -1-1h-6a1 1 0 0 0 -1 1v4h-4a1 1 0 0 0 -1 1v6a1 1 0 0 0 1 1h4v4a1 1 0 0 0 1 1h6a1 1 0 0 0 1-1v-4h4a1 1 0 0 0 1-1v-6a1 1 0 0 0 -1-1zm-1 6h-4a1 1 0 0 0 -1 1v4h-4v-4a1 1 0 0 0 -1-1h-4v-4h4a1 1 0 0 0 1-1v-4h4v4a1 1 0 0 0 1 1h4z"/></g></svg>