<?xml version="1.0" encoding="UTF-8"?>
<svg xmlns="http://www.w3.org/2000/svg" viewBox="0 0 64 64" width="512" height="512"><g id="Doctor-Stethoscope-Medical-Hospital-Job"><path d="M51.25,34.67A5.02,5.02,0,0,0,46.26,30H41.42a3.007,3.007,0,0,0-2.83,2.01l-3.06,8.8-.51-5.62.87-1.74a1,1,0,0,0-.34-1.28l-3-2a.963.963,0,0,0-1.1,0l-3,2a1,1,0,0,0-.34,1.28l.87,1.74-.51,5.62-3.06-8.8A3.007,3.007,0,0,0,22.58,30H17.74a5.02,5.02,0,0,0-4.99,4.67L11,60.93a.985.985,0,0,0,.27.75A.97.97,0,0,0,12,62H52a.97.97,0,0,0,.73-.32.985.985,0,0,0,.27-.75Zm-20.36-.12-.6-1.21L32,32.2l1.71,1.14-.6,1.21a1.031,1.031,0,0,0-.11.54l.94,10.29L32,50.96l-1.94-5.57L31,35.09A1.031,1.031,0,0,0,30.89,34.55ZM20,45a1,1,0,1,1-1,1A1,1,0,0,1,20,45ZM13.07,60l1.68-25.2A3,3,0,0,1,17.74,32H19V43.18a3,3,0,1,0,2,0V32h1.58a1,1,0,0,1,.94.67l7.54,21.66a.994.994,0,0,0,1.88,0l7.54-21.66a1,1,0,0,1,.94-.67H43v7H42a1,1,0,0,0-.99.86l-1,7a1.006,1.006,0,0,0,.23.8A1.037,1.037,0,0,0,41,48h1a1,1,0,0,0,.15-1.99L42.87,41h2.26l.72,5.01A1,1,0,0,0,46,48h1a1.037,1.037,0,0,0,.76-.34,1.006,1.006,0,0,0,.23-.8l-1-7A1,1,0,0,0,46,39H45V32h1.26a3,3,0,0,1,2.99,2.8L50.93,60Z"/><path d="M32,28A10.016,10.016,0,0,0,42,18V12a10,10,0,0,0-20,0v6A10.016,10.016,0,0,0,32,28ZM32,4a8.011,8.011,0,0,1,8,8H37.41l-1.7-1.71a1.008,1.008,0,0,0-1.42,0L32.59,12H24A8.011,8.011,0,0,1,32,4ZM24,14h9a1.033,1.033,0,0,0,.71-.29L35,12.41l1.29,1.3A1.033,1.033,0,0,0,37,14h3v4a8,8,0,0,1-16,0Z"/></g></svg>
