<?xml version="1.0" encoding="UTF-8"?>
<svg xmlns="http://www.w3.org/2000/svg" viewBox="0 0 64 64" width="512" height="512"><g id="Drug-Medicine-Medical-Health_care-Capsula-Bottle" data-name="Drug-Medicine-Medical-Health care-Capsula-Bottle"><path d="M35,12a3.009,3.009,0,0,0,3-3V5a3.009,3.009,0,0,0-3-3H5A3.009,3.009,0,0,0,2,5V9a3.009,3.009,0,0,0,3,3H7v2H6a4,4,0,0,0-4,4V58a4,4,0,0,0,4,4h9a1,1,0,0,0,0-2H6a2.006,2.006,0,0,1-2-2V53h8a1,1,0,0,0,0-2H4V18a2.006,2.006,0,0,1,2-2H34a2.006,2.006,0,0,1,2,2v2H18a1,1,0,0,0,0,2H36v6a1,1,0,0,0,2,0V18a4,4,0,0,0-4-4H33V12Zm-4,2H9V12H31ZM5,10A1,1,0,0,1,4,9V5A1,1,0,0,1,5,4H35a1,1,0,0,1,1,1V9a1,1,0,0,1-1,1Z"/><path d="M21.71,38.29a1.008,1.008,0,0,1,0,1.42,1.014,1.014,0,0,1-1.42,0L17,36.41l-3.29,3.3a1.014,1.014,0,0,1-1.42,0,1.008,1.008,0,0,1,0-1.42L15.59,35l-5.3-5.29a1,1,0,0,1-.21-1.09A.987.987,0,0,1,11,28a3,3,0,0,0,0-6H8V33a1,1,0,0,1-2,0V21a1,1,0,0,1,1-1h4a5,5,0,0,1,2,9.58l4,4.01,3.29-3.3a1,1,0,0,1,1.42,1.42L18.41,35Z"/><path d="M9,8V6A1,1,0,0,0,7,6V8A1,1,0,0,0,9,8Z"/><path d="M32,9a1,1,0,0,0,1-1V6a1,1,0,0,0-2,0V8A1,1,0,0,0,32,9Z"/><path d="M28,9a1,1,0,0,0,1-1V6a1,1,0,0,0-2,0V8A1,1,0,0,0,28,9Z"/><path d="M24,9a1,1,0,0,0,1-1V6a1,1,0,0,0-2,0V8A1,1,0,0,0,24,9Z"/><path d="M20,9a1,1,0,0,0,1-1V6a1,1,0,0,0-2,0V8A1,1,0,0,0,20,9Z"/><path d="M16,9a1,1,0,0,0,1-1V6a1,1,0,0,0-2,0V8A1,1,0,0,0,16,9Z"/><path d="M12,9a1,1,0,0,0,1-1V6a1,1,0,0,0-2,0V8A1,1,0,0,0,12,9Z"/><path d="M52,42a9.87,9.87,0,0,0-4.27.97,9,9,0,0,0-14.71-9.72L20.29,45.98A9,9,0,0,0,33.02,58.71l9.34-9.35A10,10,0,1,0,52,42ZM31.61,57.29a7,7,0,0,1-9.9-9.9l5.65-5.65,9.9,9.9Zm7.07-7.07-9.9-9.9,5.65-5.65a7,7,0,0,1,9.9,9.9ZM52,60a8.011,8.011,0,0,1-8-8,7.924,7.924,0,0,1,1.69-4.9L56.9,58.31A7.924,7.924,0,0,1,52,60Zm6.31-3.1L47.1,45.69A7.924,7.924,0,0,1,52,44a8.011,8.011,0,0,1,8,8A7.924,7.924,0,0,1,58.31,56.9Z"/></g></svg>
