<?xml version="1.0" encoding="UTF-8"?>
<svg xmlns="http://www.w3.org/2000/svg" viewBox="0 0 64 64" width="512" height="512"><g id="Eye_care-Eye-Protect-Hand-Health_care-Medical" data-name="Eye care-Eye-Protect-Hand-Health care-Medical"><path d="M32,15a6,6,0,1,0,6,6A6.006,6.006,0,0,0,32,15Zm0,10a4,4,0,1,1,4-4A4,4,0,0,1,32,25Z"/><circle cx="32" cy="21" r="2"/><path d="M32,11a14.974,14.974,0,0,0-13.93,9.633,1,1,0,0,0,0,.734A14.974,14.974,0,0,0,32,31a15.322,15.322,0,0,0,13.926-9.622,1.009,1.009,0,0,0,0-.756A15.322,15.322,0,0,0,32,11Zm0,18a12.968,12.968,0,0,1-11.919-8A12.968,12.968,0,0,1,32,13a13.283,13.283,0,0,1,11.913,8A13.283,13.283,0,0,1,32,29Z"/><path d="M50,25.96V13.34a1.007,1.007,0,0,0-.77-.98,6.975,6.975,0,0,1-5.4-6.81.987.987,0,0,0-.77-.97L32.23,2.03a.9.9,0,0,0-.46,0L20.94,4.58a.987.987,0,0,0-.77.97,6.975,6.975,0,0,1-5.4,6.81,1.007,1.007,0,0,0-.77.98V25.96c-.07.94-.15,9.05,17.64,15.97a.961.961,0,0,0,.72,0C50.15,35.01,50.07,26.9,50,25.96ZM32,39.93C15.5,33.4,15.99,26.18,15.99,26.12A.487.487,0,0,0,16,26V14.09a8.938,8.938,0,0,0,6.13-7.74L32,4.03l9.87,2.32A8.938,8.938,0,0,0,48,14.09V26a.41.41,0,0,0,.01.11C48.01,26.18,48.5,33.4,32,39.93Z"/><path d="M29.3,48.8l-8.13-9.76A3.045,3.045,0,0,0,19,37.96a3,3,0,0,0-2.25.88l-.3.29a3.011,3.011,0,0,0-.37,3.79l3.1,4.66-8.3-3.89A5.023,5.023,0,0,1,8,39.16V32.99a2.988,2.988,0,0,0-3-3H4.99a3.007,3.007,0,0,0-2.99,3v7.7a8.942,8.942,0,0,0,2.64,6.36L18.12,60.54A4.994,4.994,0,0,0,21.66,62H29a1,1,0,0,0,1-1V50.72A3,3,0,0,0,29.3,48.8ZM28,60H21.66a2.956,2.956,0,0,1-2.12-.88L6.05,45.64A6.977,6.977,0,0,1,4,40.69v-7.7a1,1,0,0,1,1-1,.99.99,0,0,1,1,1v6.17a7.022,7.022,0,0,0,4.03,6.34l11.55,5.41a1,1,0,0,0,1.25-1.46l-5.09-7.64a1,1,0,0,1,.13-1.26l.29-.3a1,1,0,0,1,.75-.29.99.99,0,0,1,.72.36l8.14,9.76a1,1,0,0,1,.23.64Z"/><path d="M59.01,29.99a2.988,2.988,0,0,0-3.01,3v6.17a5.023,5.023,0,0,1-2.88,4.53l-8.3,3.89,3.1-4.66a3.011,3.011,0,0,0-.37-3.79l-.3-.29A3.012,3.012,0,0,0,45,37.96a3.045,3.045,0,0,0-2.17,1.08L34.7,48.8a3,3,0,0,0-.7,1.92V61a1,1,0,0,0,1,1h7.34a4.994,4.994,0,0,0,3.54-1.46L59.36,47.05A8.942,8.942,0,0,0,62,40.69v-7.7A3.007,3.007,0,0,0,59.01,29.99ZM60,40.69a6.977,6.977,0,0,1-2.05,4.95L44.46,59.12a2.956,2.956,0,0,1-2.12.88H36V50.72a1,1,0,0,1,.23-.64l8.14-9.76a.995.995,0,0,1,1.47-.07l.29.3a1,1,0,0,1,.13,1.26l-5.09,7.64a1,1,0,0,0,1.25,1.46L53.97,45.5A7.022,7.022,0,0,0,58,39.16V32.99a.99.99,0,0,1,1-1,1,1,0,0,1,1,1Z"/></g></svg>
