<?xml version="1.0" encoding="UTF-8"?>
<svg xmlns="http://www.w3.org/2000/svg" viewBox="0 0 64 64" width="512" height="512"><g id="Eye-Protect-Medical-View-Health_care" data-name="Eye-Protect-Medical-View-Health care"><path d="M32,16c-10.913,0-19.75,7.923-21.934,13.643a1,1,0,0,0,0,.714C12.25,36.077,21.087,44,32,44s19.75-7.923,21.934-13.643a1,1,0,0,0,0-.714C51.75,23.923,42.913,16,32,16Zm0,26c-10.553,0-18.009-7.62-19.92-12C13.991,25.62,21.447,18,32,18s18.009,7.62,19.92,12C50.009,34.38,42.553,42,32,42Z"/><path d="M32,20A10,10,0,1,0,42,30,10.011,10.011,0,0,0,32,20Zm0,18a8,8,0,1,1,8-8A8.009,8.009,0,0,1,32,38Z"/><path d="M36.685,27.984a1,1,0,0,0-.771,1.186A4,4,0,1,1,32,26a3.967,3.967,0,0,1,1.557.314,1,1,0,0,0,.779-1.842,5.991,5.991,0,1,0,3.535,4.284A1,1,0,0,0,36.685,27.984Z"/><path d="M58.013,7.36l-25-5.172a4.974,4.974,0,0,0-2.026,0l-25,5.173A5.019,5.019,0,0,0,2,12.257V32C2,48.475,30.383,61.372,31.591,61.913a1,1,0,0,0,.818,0,92.174,92.174,0,0,0,14.677-8.6C56.982,46.153,62,38.981,62,32V12.257A5.021,5.021,0,0,0,58.013,7.36ZM60,32c0,14.175-24.513,26.252-28,27.9C28.513,58.253,4,46.184,4,32V12.257A3.012,3.012,0,0,1,6.392,9.319l25-5.172a2.965,2.965,0,0,1,1.216,0l25,5.172A3.012,3.012,0,0,1,60,12.257Z"/></g></svg>
