<?xml version="1.0" encoding="UTF-8"?>
<svg xmlns="http://www.w3.org/2000/svg" viewBox="0 0 64 64" width="512" height="512"><g id="Heart-Stethoscope-Heartbeat-Medical-Health_care" data-name="Heart-Stethoscope-Heartbeat-Medical-Health care"><path d="M23,41a7,7,0,0,1,0-14,1,1,0,0,0,0-2,9,9,0,0,0,0,18,1,1,0,0,0,0-2Z"/><path d="M61.01,5a3,3,0,0,0-2.24-1H56V3a1,1,0,0,0-2,0V7a1,1,0,0,0,2,0V6h2.77a1,1,0,0,1,1,1.11l-2.57,24a1.006,1.006,0,0,1-1,.89H45.8a1.006,1.006,0,0,1-1-.89l-2.57-24a1,1,0,0,1,1-1.11H46V7a1,1,0,0,0,2,0V3a1,1,0,0,0-2,0V4H43.23a3,3,0,0,0-2.99,3.32l2.57,24A3,3,0,0,0,45.8,34H50V53a7,7,0,0,1-14,0V38a5,5,0,0,0-5-5H27.9a5,5,0,1,0,0,2H31a3.009,3.009,0,0,1,3,3V53a9,9,0,0,0,18,0V34h4.2a3,3,0,0,0,2.99-2.68l2.57-24A3.017,3.017,0,0,0,61.01,5ZM23,37a3,3,0,1,1,3-3A3.009,3.009,0,0,1,23,37Z"/><path d="M19.473,46.279c-.6.575-1.1,1.044-1.472,1.378C15.154,45.058,4,34.4,4,27a7.008,7.008,0,0,1,7-7,6.859,6.859,0,0,1,6.125,3.485,1.041,1.041,0,0,0,1.75,0A6.859,6.859,0,0,1,25,20a7.008,7.008,0,0,1,7,7,1,1,0,0,0,2,0,9.011,9.011,0,0,0-9-9,8.916,8.916,0,0,0-7,3.222A8.916,8.916,0,0,0,11,18a9.011,9.011,0,0,0-9,9c0,9.349,14.719,22.213,15.345,22.756a1,1,0,0,0,1.31,0c.036-.031.893-.776,2.2-2.035a1,1,0,1,0-1.385-1.442Z"/></g></svg>
