<svg height="512" viewBox="0 0 64 64" width="512" xmlns="http://www.w3.org/2000/svg"><g id="Hospital-Location-Pin-Mark-Destination-Medical-Healthcenter"><path d="m32 2a21.023 21.023 0 0 0 -21 21v1.11a20.988 20.988 0 0 0 3.35 11.38l16.81 26.05a1 1 0 0 0 1.68 0l16.81-26.05a20.988 20.988 0 0 0 3.35-11.38v-1.11a21.023 21.023 0 0 0 -21-21zm19 22.11a19.01 19.01 0 0 1 -3.03 10.3l-15.97 24.75-15.97-24.75a19.01 19.01 0 0 1 -3.03-10.3v-1.11a19 19 0 0 1 38 0z"/><path d="m32 6a17 17 0 0 0 -3.6 33.62c.46.95 1.65 3.99 2.66 6.73a1 1 0 0 0 1.88 0c1.01-2.74 2.21-5.78 2.67-6.73a17 17 0 0 0 -3.61-33.62zm2.82 31.74c-.57.1-.82.15-2.82 5.41-1.99-5.26-2.24-5.31-2.81-5.41a15 15 0 1 1 5.63 0z"/><path d="m40 14h-4a1 1 0 0 0 -1 1v5h-6v-5a1 1 0 0 0 -1-1h-4a1 1 0 0 0 -1 1v16a1 1 0 0 0 1 1h4a1 1 0 0 0 1-1v-5h6v5a1 1 0 0 0 1 1h4a1 1 0 0 0 1-1v-16a1 1 0 0 0 -1-1zm-1 16h-2v-5a1 1 0 0 0 -1-1h-8a1 1 0 0 0 -1 1v5h-2v-14h2v5a1 1 0 0 0 1 1h8a1 1 0 0 0 1-1v-5h2z"/></g></svg>