<svg height="512" viewBox="0 0 64 64" width="512" xmlns="http://www.w3.org/2000/svg"><g id="Hospital-Medical-Building-Center-Health_care" data-name="Hospital-Medical-Building-Center-Health care"><path d="m9 18h-2a1 1 0 0 0 -1 1v2a1 1 0 0 0 2 0v-1h1a1 1 0 0 0 0-2z"/><path d="m16 18h-2a1 1 0 0 0 -1 1v2a1 1 0 0 0 2 0v-1h1a1 1 0 0 0 0-2z"/><path d="m9 24h-2a1 1 0 0 0 -1 1v2a1 1 0 0 0 2 0v-1h1a1 1 0 0 0 0-2z"/><path d="m16 24h-2a1 1 0 0 0 -1 1v2a1 1 0 0 0 2 0v-1h1a1 1 0 0 0 0-2z"/><path d="m9 30h-2a1 1 0 0 0 -1 1v2a1 1 0 0 0 2 0v-1h1a1 1 0 0 0 0-2z"/><path d="m16 30h-2a1 1 0 0 0 -1 1v2a1 1 0 0 0 2 0v-1h1a1 1 0 0 0 0-2z"/><path d="m9 36h-2a1 1 0 0 0 -1 1v2a1 1 0 0 0 2 0v-1h1a1 1 0 0 0 0-2z"/><path d="m48 22a1 1 0 0 0 1-1v-1h1a1 1 0 0 0 0-2h-2a1 1 0 0 0 -1 1v2a1 1 0 0 0 1 1z"/><path d="m55 22a1 1 0 0 0 1-1v-1h1a1 1 0 0 0 0-2h-2a1 1 0 0 0 -1 1v2a1 1 0 0 0 1 1z"/><path d="m48 28a1 1 0 0 0 1-1v-1h1a1 1 0 0 0 0-2h-2a1 1 0 0 0 -1 1v2a1 1 0 0 0 1 1z"/><path d="m55 28a1 1 0 0 0 1-1v-1h1a1 1 0 0 0 0-2h-2a1 1 0 0 0 -1 1v2a1 1 0 0 0 1 1z"/><path d="m48 34a1 1 0 0 0 1-1v-1h1a1 1 0 0 0 0-2h-2a1 1 0 0 0 -1 1v2a1 1 0 0 0 1 1z"/><path d="m55 34a1 1 0 0 0 1-1v-1h1a1 1 0 0 0 0-2h-2a1 1 0 0 0 -1 1v2a1 1 0 0 0 1 1z"/><path d="m48 40a1 1 0 0 0 1-1v-1h1a1 1 0 0 0 0-2h-2a1 1 0 0 0 -1 1v2a1 1 0 0 0 1 1z"/><path d="m55 40a1 1 0 0 0 1-1v-1h1a1 1 0 0 0 0-2h-2a1 1 0 0 0 -1 1v2a1 1 0 0 0 1 1z"/><path d="m61 14h-16.05a12.988 12.988 0 0 0 -25.9 0h-16.05a1 1 0 0 0 -1 1v40a1 1 0 0 0 1 1h8v.67l-2.8 3.73a1 1 0 0 0 .8 1.6h6a1 1 0 0 0 .8-1.6l-2.8-3.73v-.67h6v5a1 1 0 0 0 1 1h24a1 1 0 0 0 1-1v-5h6v.67l-2.8 3.73a1 1 0 0 0 .8 1.6h6a1 1 0 0 0 .8-1.6l-2.8-3.73v-.67h8a1 1 0 0 0 1-1v-40a1 1 0 0 0 -1-1zm-50 46 1-1.33 1 1.33zm1-10a3 3 0 1 1 3-3 3.009 3.009 0 0 1 -3 3zm7 4h-6v-2.1a5 5 0 1 0 -2 0v2.1h-7v-38h15zm16 6h-6v-11a3 3 0 0 1 6 0zm8 0h-6v-11a5 5 0 0 0 -10 0v11h-6v-45a11 11 0 0 1 22 0zm8 0 1-1.33 1 1.33zm1-10a3 3 0 1 1 3-3 3.009 3.009 0 0 1 -3 3zm8 4h-7v-2.1a5 5 0 1 0 -2 0v2.1h-6v-38h15z"/><path d="m36 24a4.994 4.994 0 0 0 -4 2.03 4.985 4.985 0 0 0 -9 2.97v10a1 1 0 0 0 1 1h16a1 1 0 0 0 1-1v-10a5 5 0 0 0 -5-5zm-5 14h-6v-9a3 3 0 0 1 6 0zm8 0h-6v-9a3 3 0 0 1 6 0z"/><path d="m17 37a1 1 0 0 1 -1 1h-1v1a1 1 0 0 1 -2 0v-2a1 1 0 0 1 1-1h2a1 1 0 0 1 1 1z"/><path d="m32 6a8 8 0 1 0 8 8 8.011 8.011 0 0 0 -8-8zm0 14a6 6 0 1 1 6-6 6 6 0 0 1 -6 6z"/><path d="m35 12v4a1 1 0 0 1 -2 0v-1h-2v1a1 1 0 0 1 -2 0v-4a1 1 0 0 1 2 0v1h2v-1a1 1 0 0 1 2 0z"/></g></svg>