<svg height="512" viewBox="0 0 64 64" width="512" xmlns="http://www.w3.org/2000/svg"><g id="Hospital-Pregnant-Medical-Healthcare-Medical_center" data-name="Hospital-Pregnant-Medical-Healthcare-Medical center"><path d="m16 2a6 6 0 0 0 -6 6v2a6 6 0 0 0 12 0v-2a6 6 0 0 0 -6-6zm4 8a4 4 0 0 1 -8 0v-2a4 4 0 0 1 8 0z"/><path d="m47 2a15 15 0 1 0 15 15 15.018 15.018 0 0 0 -15-15zm0 28a13 13 0 1 1 13-13 13.012 13.012 0 0 1 -13 13z"/><path d="m56 13h-5v-5a1 1 0 0 0 -1-1h-6a1 1 0 0 0 -1 1v5h-5a1 1 0 0 0 -1 1v6a1 1 0 0 0 1 1h5v5a1 1 0 0 0 1 1h6a1 1 0 0 0 1-1v-5h5a1 1 0 0 0 1-1v-6a1 1 0 0 0 -1-1zm-1 6h-5a1 1 0 0 0 -1 1v5h-4v-5a1 1 0 0 0 -1-1h-5v-4h5a1 1 0 0 0 1-1v-5h4v5a1 1 0 0 0 1 1h5z"/><path d="m26.18 28.17a1.19 1.19 0 0 1 -.75-.55l-1.35-2.69a1.439 1.439 0 0 1 -.1-.42 7.016 7.016 0 0 0 -6.98-6.51h-6.34a4.994 4.994 0 0 0 -3.54 1.46l-4.47 4.48a3.006 3.006 0 0 0 .01 4.26l7.22 7.11a3.014 3.014 0 0 0 3.06.71l-4.89 14.66a1 1 0 0 0 .14.9.983.983 0 0 0 .81.42h5v9a1 1 0 0 0 1 1h4a1 1 0 0 0 .98-.8l1.84-9.2h3.18a1 1 0 0 0 1-1v-5.12c2.87-.69 5-4.35 5-8.88 0-4.38-1.98-8.01-4.82-8.83zm-8 31.83h-2.18v-8h3.78zm6.82-16a1 1 0 0 0 -1 1v5h-13.61l5.56-16.68a.965.965 0 0 0 -.03-.71l-4.3-10.04a.994.994 0 0 0 -.73-.59 1.018 1.018 0 0 0 -.9.27l-3.04 3.04a1.008 1.008 0 0 0 0 1.42l5.76 5.76a.984.984 0 0 1 .29.7 1 1 0 0 1 -.3.72 1.027 1.027 0 0 1 -1.42 0l-7.21-7.12a.96.96 0 0 1 -.3-.71 1.007 1.007 0 0 1 .29-.71l4.48-4.47a2.956 2.956 0 0 1 2.12-.88h6.34a5.01 5.01 0 0 1 4.99 4.65 3.1 3.1 0 0 0 .3 1.17l1.35 2.7a3.14 3.14 0 0 0 1.98 1.57c1.93.56 3.38 3.53 3.38 6.91 0 3.79-1.83 7-4 7zm-12.71-14.78-3.22-3.22 1.29-1.29z"/></g></svg>