<?xml version="1.0" encoding="UTF-8"?>
<svg xmlns="http://www.w3.org/2000/svg" viewBox="0 0 64 64" width="512" height="512"><g id="Marijuana-leaf-hemp-Cannabis-Dropper"><path d="M62.36,31.8a.987.987,0,0,0-1.16-1.16,26.343,26.343,0,0,0-12.3,6.41c.06-.67.1-1.35.1-2.05,0-8.52-4.99-15.31-5.2-15.6a1.041,1.041,0,0,0-1.6,0c-.21.29-5.2,7.08-5.2,15.6,0,.7.04,1.38.1,2.05a26.313,26.313,0,0,0-11.92-6.33l5.69-5.69a2.994,2.994,0,0,0,4.24,0l2.83-2.83a3,3,0,0,0,0-4.24l-.05-.06a8.084,8.084,0,0,0,4.57-3.25A8,8,0,1,0,28.09,8.11l-.05-.05a3,3,0,0,0-4.24,0l-2.83,2.83a2.994,2.994,0,0,0,0,4.24L8.71,27.39a4.962,4.962,0,0,0-1.47,3.54v3.58L3.29,38.46a3.005,3.005,0,0,0,4.25,4.25l3.95-3.95h3.58a4.962,4.962,0,0,0,3.54-1.47l5.11-5.11a26.351,26.351,0,0,0,6.55,12.17,23.158,23.158,0,0,0,2.02,1.76A18.2,18.2,0,0,0,24.4,49.2a1,1,0,0,0,0,1.6A17.754,17.754,0,0,0,34,54a12.1,12.1,0,0,0,1.21-.06,12.723,12.723,0,0,0-1.69,4.4.994.994,0,0,0,.99,1.15.757.757,0,0,0,.15-.01,12.27,12.27,0,0,0,6.22-3.11A10.611,10.611,0,0,0,42,55.01V61a1,1,0,0,0,2,0V55.01a10.611,10.611,0,0,0,1.12,1.36,12.27,12.27,0,0,0,6.22,3.11.757.757,0,0,0,.15.01.994.994,0,0,0,.99-1.15,12.723,12.723,0,0,0-1.69-4.4A12.1,12.1,0,0,0,52,54a17.754,17.754,0,0,0,9.6-3.2,1,1,0,0,0,0-1.6,18.2,18.2,0,0,0-7.89-3.09,23.158,23.158,0,0,0,2.02-1.76A26.2,26.2,0,0,0,62.36,31.8ZM22.38,12.3l2.83-2.83a1.014,1.014,0,0,1,1.42,0l1.49,1.49a1,1,0,0,0,1.09.22.99.99,0,0,0,.61-.94,6,6,0,1,1,6,5.94c-.03,0-.05-.01-.07,0a.992.992,0,0,0-.71,1.7l1.49,1.49a1.008,1.008,0,0,1,0,1.42L33.7,23.62a1.047,1.047,0,0,1-1.42,0l-9.9-9.9a1.014,1.014,0,0,1,0-1.42ZM17.19,35.88a3.015,3.015,0,0,1-2.12.88h-4a1.007,1.007,0,0,0-.71.29L6.12,41.29a1.014,1.014,0,0,1-1.41,0,.978.978,0,0,1,0-1.41l4.24-4.24a1.007,1.007,0,0,0,.29-.71v-4a3.015,3.015,0,0,1,.88-2.12l1.86-1.86,3.32,1.67a9.036,9.036,0,0,0,4.02.95h4.19Zm2.13-8.31a7.1,7.1,0,0,1-3.13-.74l-2.72-1.37,8.91-8.92,7.08,7.08-3.95,3.95ZM31.69,42.93A24.071,24.071,0,0,1,26.01,33a24.212,24.212,0,0,1,9.92,5.69,18.882,18.882,0,0,1,1.81,2.1,29.973,29.973,0,0,0,2.5,6.56,17.02,17.02,0,0,0-4.36-1.22A20.5,20.5,0,0,1,31.69,42.93ZM34,52a15.2,15.2,0,0,1-7.11-2A15.126,15.126,0,0,1,34,48a15.2,15.2,0,0,1,7.11,2A15.126,15.126,0,0,1,34,52Zm5.46,2.95a9.426,9.426,0,0,1-3.55,2.14,9.371,9.371,0,0,1,2.14-3.55c.06-.06.12-.12.18-.17a19.076,19.076,0,0,0,3.07-1.21A8.977,8.977,0,0,1,39.46,54.95ZM43,48.18A26.672,26.672,0,0,1,39,35a26.672,26.672,0,0,1,4-13.18A26.672,26.672,0,0,1,47,35,26.672,26.672,0,0,1,43,48.18Zm3.54,6.78a9.116,9.116,0,0,1-1.83-2.79,18.976,18.976,0,0,0,3.06,1.2c.06.05.12.11.18.17a9.426,9.426,0,0,1,2.14,3.55A9.334,9.334,0,0,1,46.54,54.96ZM59.11,50A15.126,15.126,0,0,1,52,52a15.2,15.2,0,0,1-7.11-2A15.126,15.126,0,0,1,52,48,15.2,15.2,0,0,1,59.11,50Zm-8.99-3.87a17.02,17.02,0,0,0-4.36,1.22,29.973,29.973,0,0,0,2.5-6.56,18.882,18.882,0,0,1,1.81-2.1A24.071,24.071,0,0,1,60,33.01a24.212,24.212,0,0,1-5.69,9.92A20.5,20.5,0,0,1,50.12,46.13Z"/><path d="M34.405,13.009a1,1,0,0,0,0-1.414,2,2,0,1,1,2.829,0,1,1,0,1,0,1.414,1.414,4,4,0,1,0-5.657,0A1,1,0,0,0,34.405,13.009Z"/><path d="M11.35,54.48,7.86,48.5a1.028,1.028,0,0,0-1.72,0l-3.5,5.98A5.006,5.006,0,0,0,6.96,62h.08a5,5,0,0,0,4.31-7.52ZM9.64,58.49A2.963,2.963,0,0,1,7.04,60H6.96a3,3,0,0,1-2.59-4.51L7,50.98l2.63,4.51A2.957,2.957,0,0,1,9.64,58.49Z"/></g></svg>
