<?xml version="1.0" encoding="UTF-8"?>
<svg xmlns="http://www.w3.org/2000/svg" viewBox="0 0 64 64" width="512" height="512"><g id="Medical_care-Marijuana_leaf-Medicine-Medical-Health_care" data-name="Medical care-Marijuana leaf-Medicine-Medical-Health care"><path d="M61.71,18.29a1.008,1.008,0,0,1,0,1.42,1.014,1.014,0,0,1-1.42,0L58,17.41l-2.29,2.3a1.014,1.014,0,0,1-1.42,0,1.008,1.008,0,0,1,0-1.42L56.59,16l-4.3-4.29a1,1,0,0,1-.21-1.09A.987.987,0,0,1,53,10a3,3,0,0,0,0-6H50V14a1,1,0,0,1-2,0V3a1,1,0,0,1,1-1h4a5,5,0,0,1,2,9.58l3,3.01,2.29-2.3a1,1,0,0,1,1.42,1.42L59.41,16Z"/><path d="M48.59,20.64a.991.991,0,0,0-1.23-1.23,36.913,36.913,0,0,0-14.58,8.74,33.482,33.482,0,0,0-2.46,2.8A37.228,37.228,0,0,0,31,24,42.278,42.278,0,0,0,25.86,4.49a1.037,1.037,0,0,0-1.72,0A42.278,42.278,0,0,0,19,24a37.228,37.228,0,0,0,.68,6.95,33.482,33.482,0,0,0-2.46-2.8A36.913,36.913,0,0,0,2.64,19.41a.991.991,0,0,0-1.23,1.23,36.913,36.913,0,0,0,8.74,14.58,33.807,33.807,0,0,0,4.6,3.8c-.25-.01-.5-.02-.75-.02h-.01A24.221,24.221,0,0,0,2.48,42.15a.993.993,0,0,0,0,1.7A24.282,24.282,0,0,0,14,47a22.006,22.006,0,0,0,2.99-.22,19.065,19.065,0,0,0-4.26,7.26.991.991,0,0,0,.96,1.27.842.842,0,0,0,.27-.04,19.142,19.142,0,0,0,7.51-4.49A17.89,17.89,0,0,0,24,47.54V61a1,1,0,0,0,2,0V47.54a17.89,17.89,0,0,0,2.53,3.24,19.142,19.142,0,0,0,7.51,4.49.842.842,0,0,0,.27.04.991.991,0,0,0,.96-1.27A19.011,19.011,0,0,0,33,46.77,20.732,20.732,0,0,0,36,47a24.282,24.282,0,0,0,11.52-3.15.993.993,0,0,0,0-1.7A24.282,24.282,0,0,0,36,39c-.25,0-.5.01-.75.02a33.086,33.086,0,0,0,4.6-3.8A36.913,36.913,0,0,0,48.59,20.64ZM11.57,33.8A35.354,35.354,0,0,1,4.01,22.01,35.127,35.127,0,0,1,15.8,29.57a32.281,32.281,0,0,1,5.44,7.32c.53,1.55,1.08,2.89,1.55,3.94-.77-.3-1.65-.61-2.59-.88A33.36,33.36,0,0,1,11.57,33.8ZM14,45a22.178,22.178,0,0,1-8.79-2,22.035,22.035,0,0,1,8.78-2H14a22.509,22.509,0,0,1,8.78,2.01A22.141,22.141,0,0,1,14,45Zm6.05,4.36a16.315,16.315,0,0,1-4.59,3.17,16.853,16.853,0,0,1,3.18-4.58A15.942,15.942,0,0,1,21.7,45.6c.5-.18.97-.37,1.39-.54A16.621,16.621,0,0,1,20.05,49.36ZM25,40.82A40.791,40.791,0,0,1,21,24,40.791,40.791,0,0,1,25,7.18,40.791,40.791,0,0,1,29,24,40.791,40.791,0,0,1,25,40.82Zm9.53,11.71a16.716,16.716,0,0,1-4.58-3.17,16.161,16.161,0,0,1-3.03-4.3c.41.17.87.35,1.37.53a15.66,15.66,0,0,1,3.07,2.36A16.716,16.716,0,0,1,34.53,52.53ZM36,41a22.178,22.178,0,0,1,8.79,2A22.134,22.134,0,0,1,36,45a22.178,22.178,0,0,1-8.79-2A22.134,22.134,0,0,1,36,41Zm-6.1-1.11a25.228,25.228,0,0,0-2.69.93c.48-1.05,1.02-2.39,1.55-3.93a32.281,32.281,0,0,1,5.44-7.32,35.354,35.354,0,0,1,11.79-7.56A35.127,35.127,0,0,1,38.43,33.8,32.963,32.963,0,0,1,29.9,39.89Z"/><path d="M60.24,41.75A6,6,0,0,0,50,46v4.82a5.952,5.952,0,0,0-7.23.93,19903286476.653,19903286476.653,0,0,0-.02.02A6,6,0,0,0,47,62a5.929,5.929,0,0,0,4.2-1.73.138.138,0,0,0,.04-.03c.01-.01.02-.02.02-.03.08-.08.17-.16.24-.24A6,6,0,0,0,62,56V46A5.986,5.986,0,0,0,60.24,41.75ZM47,60a3.97,3.97,0,0,1-3.43-6.02l5.46,5.46A3.945,3.945,0,0,1,47,60Zm3.6-2.26c-.05.1-.11.19-.16.28l-5.46-5.45A3.984,3.984,0,0,1,51,56,3.863,3.863,0,0,1,50.6,57.74ZM60,56a3.995,3.995,0,0,1-7.39,2.11A5.807,5.807,0,0,0,53,56a5.954,5.954,0,0,0-1-3.29V52h8Zm0-6H52V46a4.009,4.009,0,0,1,6.83-2.84A4.045,4.045,0,0,1,60,46Z"/><path d="M56,48h2V46a2,2,0,0,0-2-2H55v2h1Z"/></g></svg>
