<svg height="512" viewBox="0 0 64 64" width="512" xmlns="http://www.w3.org/2000/svg"><g id="Medical_center-Hospital-Mark-Locaton-Destination" data-name="Medical center-Hospital-Mark-Locaton-Destination"><path d="m55 60h-21.17l15.82-24.51a20.988 20.988 0 0 0 3.35-11.38v-1.11a21 21 0 0 0 -42 0v1.11a20.988 20.988 0 0 0 3.35 11.38l15.82 24.51h-21.17a1 1 0 0 0 0 2h46a1 1 0 0 0 0-2zm-38.97-25.59a19.01 19.01 0 0 1 -3.03-10.3v-1.11a19 19 0 0 1 38 0v1.11a19.01 19.01 0 0 1 -3.03 10.3l-15.97 24.75z"/><path d="m32 6a17 17 0 0 0 -3.6 33.62c.46.95 1.65 3.99 2.66 6.73a1 1 0 0 0 1.88 0c1.01-2.74 2.21-5.78 2.67-6.73a17 17 0 0 0 -3.61-33.62zm2.82 31.74c-.57.1-.82.15-2.82 5.41-1.99-5.26-2.24-5.31-2.81-5.41a15 15 0 1 1 5.63 0z"/><path d="m43 19h-7v-7a1 1 0 0 0 -1-1h-6a1 1 0 0 0 -1 1v7h-7a1 1 0 0 0 -1 1v6a1 1 0 0 0 1 1h7v7a1 1 0 0 0 1 1h6a1 1 0 0 0 1-1v-7h7a1 1 0 0 0 1-1v-6a1 1 0 0 0 -1-1zm-1 6h-7a1 1 0 0 0 -1 1v7h-4v-7a1 1 0 0 0 -1-1h-7v-4h7a1 1 0 0 0 1-1v-7h4v7a1 1 0 0 0 1 1h7z"/><path d="m5 60h-2a1 1 0 0 0 0 2h2a1 1 0 0 0 0-2z"/><path d="m61 60h-2a1 1 0 0 0 0 2h2a1 1 0 0 0 0-2z"/></g></svg>