<svg height="512" viewBox="0 0 64 64" width="512" xmlns="http://www.w3.org/2000/svg"><g id="Medical_Folder-Documents-Health_care-Folder-Mediacl" data-name="Medical Folder-Documents-Health care-Folder-Mediacl"><path d="m57 14h-19.06a3.008 3.008 0 0 1 -2.43-1.24l-3.4-4.7a5.021 5.021 0 0 0 -4.05-2.06h-21.06a5 5 0 0 0 -5 5v50a1 1 0 0 0 1 1h58a1 1 0 0 0 1-1v-42a5 5 0 0 0 -5-5zm3 46h-56v-38h49a7.008 7.008 0 0 1 7 7zm0-36.64a8.96 8.96 0 0 0 -7-3.36h-49v-9a3.009 3.009 0 0 1 3-3h21.06a3.008 3.008 0 0 1 2.43 1.24l3.4 4.7a5.021 5.021 0 0 0 4.05 2.06h19.06a3.009 3.009 0 0 1 3 3z"/><path d="m32 26a15 15 0 1 0 15 15 15.018 15.018 0 0 0 -15-15zm0 28a13 13 0 1 1 13-13 13.012 13.012 0 0 1 -13 13z"/><path d="m41 37h-5v-5a1 1 0 0 0 -1-1h-6a1 1 0 0 0 -1 1v5h-5a1 1 0 0 0 -1 1v6a1 1 0 0 0 1 1h5v5a1 1 0 0 0 1 1h6a1 1 0 0 0 1-1v-5h5a1 1 0 0 0 1-1v-6a1 1 0 0 0 -1-1zm-1 6h-5a1 1 0 0 0 -1 1v5h-4v-5a1 1 0 0 0 -1-1h-5v-4h5a1 1 0 0 0 1-1v-5h4v5a1 1 0 0 0 1 1h5z"/></g></svg>