<svg height="512" viewBox="0 0 64 64" width="512" xmlns="http://www.w3.org/2000/svg"><g id="Medical-Degrees_celsius-Healthcare-Check-Equipment" data-name="Medical-Degrees celsius-Healthcare-Check-Equipment"><path d="m29 10a4 4 0 1 0 -4-4 4 4 0 0 0 4 4zm0-6a2 2 0 1 1 -2 2 2 2 0 0 1 2-2z"/><path d="m25 23h-4a1 1 0 0 0 -1 1 4 4 0 0 1 -4 4h-4a4 4 0 0 1 -4-4v-8a4 4 0 0 1 4-4h4a4 4 0 0 1 4 4 1 1 0 0 0 1 1h4a1 1 0 0 0 1-1 10.016 10.016 0 0 0 -10-10h-4a10.016 10.016 0 0 0 -10 10v8a10.016 10.016 0 0 0 10 10h4a10.016 10.016 0 0 0 10-10 1 1 0 0 0 -1-1zm-9 9h-4a8.011 8.011 0 0 1 -8-8v-8a8.011 8.011 0 0 1 8-8h4a8.022 8.022 0 0 1 7.94 7h-2.02a6.017 6.017 0 0 0 -5.92-5h-4a6 6 0 0 0 -6 6v8a6 6 0 0 0 6 6h4a6.017 6.017 0 0 0 5.92-5h2.02a8.022 8.022 0 0 1 -7.94 7z"/><path d="m61.76 7.23a6.911 6.911 0 0 0 -3.26-4.25 7.008 7.008 0 0 0 -9.56 2.56l-11.59 20.06a13.12 13.12 0 0 0 -1.71 5.72l-.36 5.87-11.88 20.58a3.016 3.016 0 0 0 1.1 4.1 3.062 3.062 0 0 0 1.5.4 2.982 2.982 0 0 0 .78-.1 3.013 3.013 0 0 0 1.82-1.4l4-6.93 7.88-13.65 4.9-3.24a13.124 13.124 0 0 0 4.1-4.35l11.58-20.06a6.9 6.9 0 0 0 .7-5.31zm-34.89 52.54a.974.974 0 0 1 -.61.46.963.963 0 0 1 -.76-.1 1 1 0 0 1 -.37-1.36l3.5-6.06 1.74 1zm32.46-48.23-11.58 20.06a11.008 11.008 0 0 1 -3.47 3.68l-5.1 3.37a.891.891 0 0 0 -.31.33l-7.5 12.99-1.74-1 7.5-12.99a.952.952 0 0 0 .14-.44l.36-6.1a11.046 11.046 0 0 1 1.46-4.84l11.58-20.06a5 5 0 0 1 6.83-1.83 5 5 0 0 1 1.83 6.83z"/><path d="m57.232 9.172-3.464-2a1 1 0 0 0 -1 1.732l3.464 2a1 1 0 0 0 1-1.732z"/><path d="m53.5 11.637a3 3 0 0 0 -4.1 1.1l-5 8.661a3 3 0 1 0 5.2 3l5-8.661a3 3 0 0 0 -1.1-4.1zm-.634 3.1-5 8.661a1 1 0 1 1 -1.732-1l5-8.661a.994.994 0 0 1 .607-.465 1.011 1.011 0 0 1 .26-.035 1 1 0 0 1 .865 1.5z"/></g></svg>