<?xml version="1.0" encoding="UTF-8"?>
<svg xmlns="http://www.w3.org/2000/svg" viewBox="0 0 64 64" width="512" height="512"><g id="Medical-Doctor-Surgery-Operation-Healthcare"><path d="M42,8a6,6,0,0,0-6-6H28a6,6,0,0,0-6,6V9a1,1,0,0,0,.28.69A9.869,9.869,0,0,0,22,12v6a10,10,0,0,0,20,0V12a9.869,9.869,0,0,0-.28-2.31A1,1,0,0,0,42,9ZM32,26a7.964,7.964,0,0,1-5.83-2.54L27.78,17h8.44l1.61,6.46A7.964,7.964,0,0,1,32,26Zm8-8a7.937,7.937,0,0,1-.67,3.2l-1.36-5.44A1,1,0,0,0,37,15H27a1,1,0,0,0-.97.76L24.67,21.2A7.937,7.937,0,0,1,24,18V12a8.364,8.364,0,0,1,.25-2h15.5A8.364,8.364,0,0,1,40,12ZM24,8a4,4,0,0,1,4-4h8a4,4,0,0,1,4,4Z"/><path d="M51.36,34.5A4.994,4.994,0,0,0,46.38,30H41.2a3.009,3.009,0,0,0-2.65,1.59L32,43.88,25.45,31.59A3.009,3.009,0,0,0,22.8,30H17.62a4.994,4.994,0,0,0-4.98,4.5L10,60.9a1.036,1.036,0,0,0,.26.77A1,1,0,0,0,11,62H53a1,1,0,0,0,.74-.33A1.036,1.036,0,0,0,54,60.9ZM12.1,60l2.53-25.3A3,3,0,0,1,17.62,32H22.8a.984.984,0,0,1,.88.53l7.18,13.46-4.73,8.52a1,1,0,0,0,.38,1.36A.973.973,0,0,0,27,56a1,1,0,0,0,.87-.51l5-9,.01-.01v-.01l7.44-13.94A.984.984,0,0,1,41.2,32h5.18a3,3,0,0,1,2.99,2.7L51.9,60Z"/><path d="M46,41H40a1,1,0,0,0,0,2h6a1,1,0,0,0,0-2Z"/></g></svg>
