<?xml version="1.0" encoding="UTF-8"?>
<svg xmlns="http://www.w3.org/2000/svg" viewBox="0 0 64 64" width="512" height="512"><g id="Medicine-Medical-Document-Drug-Health_caer" data-name="Medicine-Medical-Document-Drug-Health caer"><path d="M43.92,12.61a.988.988,0,0,0-.21-.32l-10-10a.933.933,0,0,0-.33-.21A1,1,0,0,0,33,2H7A5,5,0,0,0,2,7V57a5,5,0,0,0,5,5H19a1,1,0,0,0,0-2H7a3.009,3.009,0,0,1-3-3V7A3.009,3.009,0,0,1,7,4H32v7a3.009,3.009,0,0,0,3,3h7v3.03a1,1,0,0,0,2,0V13A1.087,1.087,0,0,0,43.92,12.61ZM35,12a1,1,0,0,1-1-1V5.41L40.59,12Z"/><path d="M25.71,31.71a1.014,1.014,0,0,1-1.42,0l-4.56-4.57-5.06,4.6A1.008,1.008,0,0,1,14,32a1,1,0,0,1-.67-1.74l4.98-4.53-6.02-6.02a1,1,0,0,1-.21-1.09A.987.987,0,0,1,13,18,5,5,0,0,0,13,8H8V25a1,1,0,0,1-2,0V8A2.006,2.006,0,0,1,8,6h5a7,7,0,0,1,2.09,13.68l4.7,4.7,4.54-4.12a1,1,0,0,1,1.34,1.48L21.21,25.8l4.5,4.49A1.008,1.008,0,0,1,25.71,31.71Z"/><path d="M57,43a1,1,0,0,0-1,1v7a5.006,5.006,0,0,1-5,5,1,1,0,0,0,0,2,7.008,7.008,0,0,0,7-7V44A1,1,0,0,0,57,43Z"/><path d="M23.812,44.228a1.012,1.012,0,0,0-.833-.286,1,1,0,0,0-.735.485,9,9,0,0,0,12.33,12.329,1,1,0,0,0,.2-1.568ZM25.05,53.95a7,7,0,0,1-1.647-7.3L32.354,55.6A7.005,7.005,0,0,1,25.05,53.95Z"/><path d="M58.78,21.22A11,11,0,0,0,40,29V40.71a13.008,13.008,0,1,0,1.09,15.03A10.99,10.99,0,0,0,62,51V29A10.922,10.922,0,0,0,58.78,21.22ZM30,60A11,11,0,1,1,41,49,11.007,11.007,0,0,1,30,60Zm30-9a8.992,8.992,0,0,1-17.71,2.21A13.1,13.1,0,0,0,43,49a12.957,12.957,0,0,0-1-4.99V41H60Zm0-12H42V29a9,9,0,0,1,18,0Z"/><path d="M36.36,42.64a8.99,8.99,0,0,0-10.93-1.4,1.008,1.008,0,0,0-.49.74.988.988,0,0,0,.29.83L36.19,53.77a.994.994,0,0,0,.7.3c.05,0,.09-.01.13-.01a1.008,1.008,0,0,0,.74-.49A8.99,8.99,0,0,0,36.36,42.64Zm.24,8.71L27.65,42.4a7.01,7.01,0,0,1,8.95,8.95Z"/><path d="M57,27H54V24a1,1,0,0,0-1-1H49a1,1,0,0,0-1,1v3H45a1,1,0,0,0-1,1v4a1,1,0,0,0,1,1h3v3a1,1,0,0,0,1,1h4a1,1,0,0,0,1-1V33h3a1,1,0,0,0,1-1V28A1,1,0,0,0,57,27Zm-1,4H53a1,1,0,0,0-1,1v3H50V32a1,1,0,0,0-1-1H46V29h3a1,1,0,0,0,1-1V25h2v3a1,1,0,0,0,1,1h3Z"/></g></svg>
