<svg height="512" viewBox="0 0 64 64" width="512" xmlns="http://www.w3.org/2000/svg"><g id="Mobie_phone-Medical_care-Home-Conference-Health_care" data-name="Mobie phone-Medical care-Home-Conference-Health care"><path d="m56 11h-3v-3a1 1 0 0 0 -1-1h-4a1 1 0 0 0 -1 1v3h-3a1 1 0 0 0 -1 1v4a1 1 0 0 0 1 1h3v3a1 1 0 0 0 1 1h4a1 1 0 0 0 1-1v-3h3a1 1 0 0 0 1-1v-4a1 1 0 0 0 -1-1zm-1 4h-3a1 1 0 0 0 -1 1v3h-2v-3a1 1 0 0 0 -1-1h-3v-2h3a1 1 0 0 0 1-1v-3h2v3a1 1 0 0 0 1 1h3z"/><path d="m40.45 25.11a1 1 0 0 0 -1.05.09l-2.55 1.91a2.992 2.992 0 0 0 -2.85-2.11h-8a3.009 3.009 0 0 0 -3 3v4a3.009 3.009 0 0 0 3 3h8a2.992 2.992 0 0 0 2.85-2.11l2.55 1.91a.99.99 0 0 0 1.05.09.988.988 0 0 0 .55-.89v-8a.988.988 0 0 0 -.55-.89zm-5.45 6.89a1 1 0 0 1 -1 1h-8a1 1 0 0 1 -1-1v-4a1 1 0 0 1 1-1h8a1 1 0 0 1 1 1zm4 0-2-1.5v-1l2-1.5z"/><path d="m34 10a1 1 0 0 0 0-2h-4a1 1 0 0 0 0 2z"/><path d="m47 29v26a5 5 0 0 1 -5 5h-15a1 1 0 0 1 0-2h15a3.009 3.009 0 0 0 3-3v-26a1 1 0 0 1 2 0z"/><path d="m18 36a1 1 0 0 0 1-1v-26a3 3 0 0 1 3-3h16a1 1 0 0 0 0-2h-16a5.006 5.006 0 0 0 -5 5v26a1 1 0 0 0 1 1z"/><path d="m29 53a3 3 0 1 0 3-3 3 3 0 0 0 -3 3zm4 0a1 1 0 1 1 -1-1 1 1 0 0 1 1 1z"/><path d="m50 2a12 12 0 1 0 12 12 12.01 12.01 0 0 0 -12-12zm0 22a10 10 0 1 1 10-10 10.016 10.016 0 0 1 -10 10z"/><path d="m14 38a12 12 0 1 0 12 12 12.01 12.01 0 0 0 -12-12zm0 22a10 10 0 1 1 10-10 10.016 10.016 0 0 1 -10 10z"/><path d="m21.58 49.19-7-5a.991.991 0 0 0 -1.16 0l-7 5a1 1 0 0 0 .58 1.81h1v3a1 1 0 0 0 1 1h10a1 1 0 0 0 1-1v-3h1a1 1 0 0 0 .58-1.81zm-3.58.81v3h-8v-3a1.014 1.014 0 0 0 -.29-.71l4.29-3.06 4.29 3.06a1.014 1.014 0 0 0 -.29.71z"/></g></svg>