<?xml version="1.0" encoding="UTF-8"?>
<svg xmlns="http://www.w3.org/2000/svg" viewBox="0 0 64 64" width="512" height="512"><g id="Motorbike-Ambulance-Health_care-Medical-Delivery" data-name="Motorbike-Ambulance-Health care-Medical-Delivery"><path d="M53,46a8.89,8.89,0,0,0-2,.23V40a7.973,7.973,0,0,0-1.78-5H50a4,4,0,0,0,0-8H46a3.924,3.924,0,0,0-2.39.82l-6.19-.78L32.1,22.61A6,6,0,0,0,36,17V15.01l.12-.02A1,1,0,0,0,37,14V13a7,7,0,0,0-14,0v6a1,1,0,0,0,1,1h.83a5.726,5.726,0,0,0,.93,1.25,6.425,6.425,0,0,0,.96.78A2.989,2.989,0,0,0,24,25V40H22V24a2.006,2.006,0,0,0-2-2H16V20a4,4,0,0,0-8,0v2H4a2.006,2.006,0,0,0-2,2V40a2.006,2.006,0,0,0,2,2H16.1A12.987,12.987,0,0,0,10,53v2a1,1,0,0,0,1,1h3.08a6.991,6.991,0,0,0,13.84,0H46.08a6.991,6.991,0,0,0,13.84,0H61a1,1,0,0,0,1-1A9.014,9.014,0,0,0,53,46ZM49,29h1a2,2,0,0,1,0,4H49Zm-3,0h1v4H46a2,2,0,0,1,0-4ZM34,17a4,4,0,0,1-6.83,2.83,3.44,3.44,0,0,1-.3-.35c.01-.01.02-.02.02-.03l1.77-3.52L34,15.26Zm-8.62,1H25V13a5,5,0,0,1,10,0v.12l-7.12.89a.961.961,0,0,0-.77.54ZM26,25a1,1,0,0,1,1-1h3.64l5.72,4.77a1.007,1.007,0,0,0,.52.22l5.37.67A3.983,3.983,0,0,0,42,31a4.167,4.167,0,0,0,.07.71l-6.72-.68-2.8-1.86a.963.963,0,0,0-1.02-.05A.984.984,0,0,0,31,30v6H26ZM10,20a2,2,0,0,1,4,0v2H10ZM4,40V24H20V40ZM21,60a5.017,5.017,0,0,1-4.9-4h9.8A5.017,5.017,0,0,1,21,60Zm9-6H12V53A11.007,11.007,0,0,1,23,42h4a3.009,3.009,0,0,1,3,3Zm4,0H32V45a4.924,4.924,0,0,0-1.03-3H34Zm1-14H26V38H36a2.006,2.006,0,0,1,2,2V50H36V41A1,1,0,0,0,35,40Zm1,14V52h3a2.006,2.006,0,0,1,2,2Zm7,0a4,4,0,0,0-3-3.86V40a4,4,0,0,0-4-4H33V31.87l1.45.96a1.028,1.028,0,0,0,.45.17l8.27.83A4.025,4.025,0,0,0,46,35h.29A5.927,5.927,0,0,1,49,40v8A6,6,0,0,1,43,54Zm10,6a5.017,5.017,0,0,1-4.9-4h9.8A5.017,5.017,0,0,1,53,60Zm-4.73-6a8,8,0,0,0,2.72-5.7A6.748,6.748,0,0,1,53,48a7.013,7.013,0,0,1,6.93,6Z"/><path d="M17,29H15V27a1,1,0,0,0-1-1H10a1,1,0,0,0-1,1v2H7a1,1,0,0,0-1,1v4a1,1,0,0,0,1,1H9v2a1,1,0,0,0,1,1h4a1,1,0,0,0,1-1V35h2a1,1,0,0,0,1-1V30A1,1,0,0,0,17,29Zm-1,4H14a1,1,0,0,0-1,1v2H11V34a1,1,0,0,0-1-1H8V31h2a1,1,0,0,0,1-1V28h2v2a1,1,0,0,0,1,1h2Z"/><path d="M12,14a1,1,0,0,0,1-1V11a1,1,0,0,0-2,0v2A1,1,0,0,0,12,14Z"/><path d="M7.634,14.438a1,1,0,0,0,1.732-1l-1-1.732a1,1,0,1,0-1.732,1Z"/><path d="M15,14.8a1,1,0,0,0,1.366-.366l1-1.732a1,1,0,1,0-1.732-1l-1,1.732A1,1,0,0,0,15,14.8Z"/></g></svg>
