<svg height="512" viewBox="0 0 64 64" width="512" xmlns="http://www.w3.org/2000/svg"><g id="Nurse-Hospital-Medical_care-Health_care-Women" data-name="Nurse-Hospital-Medical care-Health care-Women"><path d="m51.46 42.32a5.017 5.017 0 0 0 -4.95-4.32h-5.37a3.013 3.013 0 0 0 -2.58 1.47l-6.51 11.01-6.61-11.02a3.009 3.009 0 0 0 -2.57-1.46h-5.38a5.017 5.017 0 0 0 -4.95 4.32l-2.53 18.54a1.012 1.012 0 0 0 .24.8.981.981 0 0 0 .75.34h42a.981.981 0 0 0 .75-.34 1.012 1.012 0 0 0 .24-.8zm-39.31 17.68 2.37-17.41a3 3 0 0 1 2.97-2.59h5.38a1.012 1.012 0 0 1 .86.49l7.17 11.95-4.47 7.56zm16.6 0 11.53-19.51a1.012 1.012 0 0 1 .86-.49h5.37a3 3 0 0 1 2.97 2.59l2.37 17.41z"/><path d="m46 49h-6a1 1 0 0 0 0 2h6a1 1 0 0 0 0-2z"/><path d="m46.5 29.62-4.3-15.05 1.75-5.25a1.185 1.185 0 0 0 .05-.32c0-3.93-5.27-7-12-7s-12 3.07-12 7a1.185 1.185 0 0 0 .05.32l1.75 5.25-4.3 15.06a5 5 0 0 0 4.8 6.37h19.4a5.008 5.008 0 0 0 4.8-6.38zm-14.5-25.62c5.32 0 9.83 2.21 10 4.85l-2.28 6.81a9.972 9.972 0 0 0 -15.44 0l-2.28-6.81c.17-2.64 4.68-4.85 10-4.85zm7.92 16.96c-4.17-.36-4.92-3.07-4.94-3.18a1 1 0 0 0 -1.09-.77.989.989 0 0 0 -.89.99c0 1.87-4.99 2.82-8.93 2.98a7.99 7.99 0 0 1 15.85-.02zm-17.62 13.04a2.956 2.956 0 0 1 -2.39-1.19 3 3 0 0 1 -.49-2.64l2.63-9.21c-.03.34-.05.69-.05 1.04v4a9.989 9.989 0 0 0 4.03 8zm9.7 0a8.011 8.011 0 0 1 -8-8v-3.02c2.52-.08 7.89-.51 10.06-2.75a7.858 7.858 0 0 0 5.94 2.73v3.04a8.011 8.011 0 0 1 -8 8zm12.09-1.19a2.956 2.956 0 0 1 -2.39 1.19h-3.73a9.989 9.989 0 0 0 4.03-8v-4.01c0-.35-.02-.69-.05-1.03l2.63 9.21a3 3 0 0 1 -.49 2.64z"/><path d="m34 7v2h-1v1h-2v-1h-1v-2h1v-1h2v1z"/></g></svg>