<?xml version="1.0" encoding="UTF-8"?>
<svg xmlns="http://www.w3.org/2000/svg" viewBox="0 0 64 64" width="512" height="512"><g id="Protect-Heart_beat-Madical-Health_care-Heart" data-name="Protect-Heart beat-Madical-Health care-Heart"><path d="M51,33H48.618L46.9,29.553a1,1,0,0,0-1.875.251l-1.833,9.164-2.2-16.1a1,1,0,0,0-.96-.865,1.027,1.027,0,0,0-1.011.8L36.707,34.369l-1.77-4.72a1,1,0,0,0-1.832-.1L31.382,33H29a1,1,0,0,0,0,2h3a1,1,0,0,0,.9-.553l.974-1.948,2.194,5.852A1,1,0,0,0,37.98,38.2l1.833-9.164,2.2,16.1a1,1,0,0,0,.96.865H43a1,1,0,0,0,.98-.8l2.429-12.142.7,1.393A1,1,0,0,0,48,35h3a1,1,0,0,0,0-2Z"/><path d="M58.013,7.36l-25-5.172a4.974,4.974,0,0,0-2.026,0l-25,5.173A5.019,5.019,0,0,0,2,12.257V32C2,48.475,30.383,61.372,31.591,61.913a1,1,0,0,0,.818,0,92.174,92.174,0,0,0,14.677-8.6C56.982,46.153,62,38.981,62,32V12.257A5.021,5.021,0,0,0,58.013,7.36ZM60,32c0,14.175-24.513,26.252-28,27.9C28.513,58.253,4,46.184,4,32V12.257A3.012,3.012,0,0,1,6.392,9.319l25-5.172a2.965,2.965,0,0,1,1.216,0l25,5.172A3.012,3.012,0,0,1,60,12.257Z"/><path d="M33.473,44.279c-.6.575-1.1,1.044-1.472,1.378C29.154,43.058,18,32.4,18,25a7.008,7.008,0,0,1,7-7,6.859,6.859,0,0,1,6.125,3.485,1.041,1.041,0,0,0,1.75,0A6.859,6.859,0,0,1,39,18a7.008,7.008,0,0,1,7,7,1,1,0,0,0,2,0,9.011,9.011,0,0,0-9-9,8.916,8.916,0,0,0-7,3.222A8.916,8.916,0,0,0,25,16a9.011,9.011,0,0,0-9,9c0,9.349,14.719,22.213,15.345,22.756a1,1,0,0,0,1.31,0c.036-.031.893-.776,2.2-2.035a1,1,0,1,0-1.385-1.442Z"/></g></svg>
