<?xml version="1.0" encoding="UTF-8"?>
<svg xmlns="http://www.w3.org/2000/svg" viewBox="0 0 64 64" width="512" height="512"><g id="Stethoscope-Pad-Medical-Health_care-Check" data-name="Stethoscope-Pad-Medical-Health care-Check"><path d="M31,31a1,1,0,0,0,1-1V11a3.009,3.009,0,0,0-3-3H23V7a5,5,0,0,0-5-5H16a5,5,0,0,0-5,5V8H5a3.009,3.009,0,0,0-3,3V59a3.009,3.009,0,0,0,3,3H29a3.009,3.009,0,0,0,3-3V46a1,1,0,0,0-2,0V59a1,1,0,0,1-1,1H5a1,1,0,0,1-1-1V11a1,1,0,0,1,1-1H8v3a3.009,3.009,0,0,0,3,3H23a3.009,3.009,0,0,0,3-3V10h3a1,1,0,0,1,1,1V30A1,1,0,0,0,31,31ZM13,7a3.009,3.009,0,0,1,3-3h2a3.009,3.009,0,0,1,3,3V8H13Zm11,6a1,1,0,0,1-1,1H11a1,1,0,0,1-1-1V10H24Z"/><path d="M19,48H16V45a1,1,0,0,0-1-1H11a1,1,0,0,0-1,1v3H7a1,1,0,0,0-1,1v4a1,1,0,0,0,1,1h3v3a1,1,0,0,0,1,1h4a1,1,0,0,0,1-1V54h3a1,1,0,0,0,1-1V49A1,1,0,0,0,19,48Zm-1,4H15a1,1,0,0,0-1,1v3H12V53a1,1,0,0,0-1-1H8V50h3a1,1,0,0,0,1-1V46h2v3a1,1,0,0,0,1,1h3Z"/><path d="M24.83,19.55l-4,6a.989.989,0,0,1-.73.45H20a1.007,1.007,0,0,1-.71-.29l-2-2a1,1,0,0,1,1.42-1.42l1.13,1.14,3.33-4.98a1,1,0,0,1,1.66,1.1Z"/><path d="M24.83,27.55l-4,6a.989.989,0,0,1-.73.45H20a1.007,1.007,0,0,1-.71-.29l-2-2a1,1,0,0,1,1.42-1.42l1.13,1.14,3.33-4.98a1,1,0,0,1,1.66,1.1Z"/><path d="M24.83,35.55l-4,6a.989.989,0,0,1-.73.45H20a1.007,1.007,0,0,1-.71-.29l-2-2a1,1,0,0,1,1.42-1.42l1.13,1.14,3.33-4.98a1,1,0,0,1,1.66,1.1Z"/><path d="M60.91,9.08A2.977,2.977,0,0,0,58.6,8H56a1,1,0,0,0-2,0v2a1,1,0,0,0,2,0h2.6a.966.966,0,0,1,.77.36,1,1,0,0,1,.22.82l-3.28,18a1,1,0,0,1-.98.82H46.67a1,1,0,0,1-.98-.82l-3.28-18a1,1,0,0,1,.22-.82A.966.966,0,0,1,43.4,10H46a1,1,0,0,0,2,0V8a1,1,0,0,0-2,0H43.4a2.977,2.977,0,0,0-2.31,1.08,3.028,3.028,0,0,0-.65,2.46l3.28,18A3,3,0,0,0,46.67,32H50V57a3,3,0,0,1-6,0V42a5,5,0,0,0-5-5H35.9a5,5,0,1,0,0,2H39a3.009,3.009,0,0,1,3,3V57a5,5,0,0,0,10,0V32h3.33a3,3,0,0,0,2.95-2.46l3.28-18A3.028,3.028,0,0,0,60.91,9.08ZM31,41a3,3,0,1,1,3-3A3.009,3.009,0,0,1,31,41Z"/></g></svg>
