<svg height="512" viewBox="0 0 64 64" width="512" xmlns="http://www.w3.org/2000/svg"><g id="Thermometer-Equipment-Temp-Fahrenheit-Medical"><path d="m29 10a4 4 0 1 0 -4-4 4 4 0 0 0 4 4zm0-6a2 2 0 1 1 -2 2 2 2 0 0 1 2-2z"/><path d="m22 7h-18a1 1 0 0 0 -1 1v26a1 1 0 0 0 1 1h4a1 1 0 0 0 1-1v-11h11a1 1 0 0 0 1-1v-4a1 1 0 0 0 -1-1h-11v-4h13a1 1 0 0 0 1-1v-4a1 1 0 0 0 -1-1zm-1 4h-13a1 1 0 0 0 -1 1v6a1 1 0 0 0 1 1h11v2h-11a1 1 0 0 0 -1 1v11h-2v-24h16z"/><path d="m61.76 7.23a6.911 6.911 0 0 0 -3.26-4.25 7.008 7.008 0 0 0 -9.56 2.56l-11.59 20.06a13.12 13.12 0 0 0 -1.71 5.72l-.36 5.87-11.88 20.58a3.016 3.016 0 0 0 1.1 4.1 3.062 3.062 0 0 0 1.5.4 2.982 2.982 0 0 0 .78-.1 3.013 3.013 0 0 0 1.82-1.4l4-6.93 7.88-13.65 4.9-3.24a13.124 13.124 0 0 0 4.1-4.35l11.58-20.06a6.9 6.9 0 0 0 .7-5.31zm-34.89 52.54a.974.974 0 0 1 -.61.46.963.963 0 0 1 -.76-.1 1 1 0 0 1 -.37-1.36l3.5-6.06 1.74 1zm32.46-48.23-11.58 20.06a11.008 11.008 0 0 1 -3.47 3.68l-5.1 3.37a.891.891 0 0 0 -.31.33l-7.5 12.99-1.74-1 7.5-12.99a.952.952 0 0 0 .14-.44l.36-6.1a11.046 11.046 0 0 1 1.46-4.84l.08-.14.87.5a1 1 0 0 0 1.36-.37 1.007 1.007 0 0 0 -.36-1.37l-.87-.5 1-1.73.87.5a.981.981 0 0 0 1.36-.36 1.007 1.007 0 0 0 -.36-1.37l-.87-.5 1-1.73.87.5a1 1 0 0 0 1.36-.37.993.993 0 0 0 -.36-1.36l-.87-.5 1-1.74.87.5a.9.9 0 0 0 .5.14.991.991 0 0 0 .86-.5 1.007 1.007 0 0 0 -.36-1.37l-.87-.5 1-1.73.87.5a1 1 0 0 0 1.36-.37 1 1 0 0 0 -.36-1.36l-.87-.5 1-1.73.87.5a1 1 0 0 0 1.36-.37 1.007 1.007 0 0 0 -.36-1.37l-.87-.5.5-.86a5 5 0 0 1 6.83-1.83 5 5 0 0 1 1.83 6.83z"/><path d="m55.5 8.172a1 1 0 0 0 -1.366.366l-14 24.249a1 1 0 1 0 1.732 1l14-24.249a1 1 0 0 0 -.366-1.366z"/></g></svg>