<?xml version="1.0" encoding="UTF-8"?>
<svg xmlns="http://www.w3.org/2000/svg" viewBox="0 0 64 64" width="512" height="512"><g id="Wheelchair-Medial-Healthcare-Hospital-Disabled"><path d="M22,16a6.006,6.006,0,0,0,6-6V8A6,6,0,0,0,16,8v2A6.006,6.006,0,0,0,22,16ZM18,8a4,4,0,0,1,8,0v2a4,4,0,0,1-8,0Z"/><path d="M56,13H51V8a1,1,0,0,0-1-1H44a1,1,0,0,0-1,1v5H38a1,1,0,0,0-1,1v6a1,1,0,0,0,1,1h5v5a1,1,0,0,0,1,1h6a1,1,0,0,0,1-1V21h5a1,1,0,0,0,1-1V14A1,1,0,0,0,56,13Zm-1,6H50a1,1,0,0,0-1,1v5H45V20a1,1,0,0,0-1-1H39V15h5a1,1,0,0,0,1-1V9h4v5a1,1,0,0,0,1,1h5Z"/><path d="M47,2A15,15,0,1,0,62,17,15.017,15.017,0,0,0,47,2Zm0,28A13,13,0,1,1,60,17,13.015,13.015,0,0,1,47,30Z"/><path d="M51.79,56.5l-1-1.73a2.99,2.99,0,0,0-4.09-1.1l-.07.04L40.97,40.97A5.026,5.026,0,0,0,36.4,38H30V25a7.008,7.008,0,0,0-7-7H21a7.008,7.008,0,0,0-7,7V36.42A11,11,0,1,0,28,47c0-.33-.02-.67-.05-1h5.88a1.013,1.013,0,0,1,.87.51l8.43,14.98a1,1,0,0,0,.61.47A.746.746,0,0,0,44,62a1.094,1.094,0,0,0,.5-.13l6.93-4A1,1,0,0,0,51.79,56.5ZM17,56a9,9,0,0,1-3-17.48V39a7.008,7.008,0,0,0,7,7h4.94A8.386,8.386,0,0,1,26,47,9.014,9.014,0,0,1,17,56Zm27.38,3.63-7.94-14.1A3.006,3.006,0,0,0,33.83,44H21a5,5,0,0,1-5-5V25a5,5,0,0,1,5-5h2a5,5,0,0,1,5,5V39a1,1,0,0,0,1,1h7.4a3.024,3.024,0,0,1,2.75,1.79l6.1,13.75a1.05,1.05,0,0,0,.61.54,1,1,0,0,0,.81-.08l1.03-.6a.958.958,0,0,1,.5-.13,1.222,1.222,0,0,1,.26.03,1.006,1.006,0,0,1,.6.47l.5.86Z"/><path d="M31,48.01a1,1,0,0,0-1.132.848,13,13,0,1,1-18.44-13.6,1,1,0,0,0,.57-.9V21a1,1,0,0,0-.684-.949l-6-2a1,1,0,0,0-.632,1.9L10,21.721V33.733A15,15,0,1,0,31.851,49.142,1,1,0,0,0,31,48.01Z"/></g></svg>
